<svg width="62" height="61" viewBox="0 0 62 61" fill="none" xmlns="http://www.w3.org/2000/svg">
<g clip-path="url(#clip0_116_21)">
<path d="M55.7773 53.3739H6.21594C3.05759 53.3739 0.497314 50.8136 0.497314 47.6552V13.3435C0.497314 10.1852 3.05759 7.62488 6.21594 7.62488H55.7773C58.9357 7.62488 61.496 10.1852 61.496 13.3435V47.6552C61.496 50.8136 58.9357 53.3739 55.7773 53.3739ZM13.8408 14.2966C10.1561 14.2966 7.16904 17.2836 7.16904 20.9683C7.16904 24.653 10.1561 27.6401 13.8408 27.6401C17.5255 27.6401 20.5125 24.653 20.5125 20.9683C20.5125 17.2836 17.5255 14.2966 13.8408 14.2966ZM8.12215 45.749H53.8711V32.4056L43.4448 21.9792C42.8865 21.4209 41.9813 21.4209 41.4229 21.9792L25.278 38.1242L18.6641 31.5103C18.1058 30.952 17.2006 30.952 16.6422 31.5103L8.12215 40.0304V45.749Z" fill="#BDBDBD"/>
</g>
<defs>
<clipPath id="clip0_116_21">
<rect x="0.497559" width="60.9987" height="60.9987" rx="14" fill="white"/>
</clipPath>
</defs>
</svg>
