<svg width="176" height="20" viewBox="0 0 176 20" fill="none" xmlns="http://www.w3.org/2000/svg">
<path d="M0.658269 0.710221H7.7275C9.17693 0.710221 10.4224 0.927202 11.4639 1.36116C12.5141 1.79512 13.3213 2.43739 13.8854 3.28795C14.4496 4.13852 14.7316 5.18436 14.7316 6.42549C14.7316 7.44096 14.558 8.31322 14.2109 9.04228C13.8724 9.76265 13.3907 10.3659 12.7658 10.8519C12.1496 11.3293 11.4248 11.7111 10.5916 11.9976L9.35485 12.6485H3.20996L3.18392 9.60209H7.75354C8.43919 9.60209 9.00768 9.48058 9.459 9.23756C9.91032 8.99454 10.2488 8.65605 10.4745 8.22209C10.7088 7.78813 10.826 7.28473 10.826 6.71191C10.826 6.10436 10.7132 5.57927 10.4875 5.13663C10.2618 4.69399 9.919 4.3555 9.459 4.12116C8.999 3.88682 8.42184 3.76965 7.7275 3.76965H4.56392V19.6656H0.658269V0.710221ZM11.2556 19.6656L6.93335 11.2164L11.0603 11.1904L15.4347 19.4834V19.6656H11.2556ZM30.4584 16.6192V19.6656H20.3688V16.6192H30.4584ZM21.6446 0.710221V19.6656H17.739V0.710221H21.6446ZM29.1435 8.43039V11.3987H20.3688V8.43039H29.1435ZM30.4454 0.710221V3.76965H20.3688V0.710221H30.4454ZM38.5561 19.6656H34.4291L34.4552 16.6192H38.5561C39.5803 16.6192 40.4438 16.3892 41.1469 15.9292C41.8499 15.4606 42.3793 14.7792 42.7352 13.8853C43.0997 12.9913 43.2819 11.9108 43.2819 10.6436V9.71926C43.2819 8.74718 43.1778 7.89228 42.9695 7.15455C42.7699 6.41681 42.4704 5.79625 42.0712 5.29285C41.6719 4.78946 41.1816 4.41191 40.6001 4.16021C40.0186 3.89984 39.3503 3.76965 38.5952 3.76965H34.351V0.710221H38.5952C39.8623 0.710221 41.021 0.927202 42.0712 1.36116C43.1301 1.78645 44.0457 2.39833 44.8182 3.19682C45.5906 3.99531 46.1851 4.95002 46.6017 6.06096C47.027 7.16323 47.2397 8.39134 47.2397 9.74529V10.6436C47.2397 11.9889 47.027 13.217 46.6017 14.3279C46.1851 15.4389 45.5906 16.3936 44.8182 17.1921C44.0544 17.9819 43.1387 18.5938 42.0712 19.0277C41.0123 19.453 39.8406 19.6656 38.5561 19.6656ZM36.6423 0.710221V19.6656H32.7367V0.710221H36.6423ZM64.0991 12.9089H59.2691V9.86246H64.0991C64.8455 9.86246 65.453 9.74096 65.9217 9.49794C66.3904 9.24624 66.7332 8.89907 66.9502 8.45643C67.1672 8.01379 67.2757 7.51473 67.2757 6.95926C67.2757 6.39511 67.1672 5.87002 66.9502 5.38398C66.7332 4.89795 66.3904 4.50738 65.9217 4.21229C65.453 3.91719 64.8455 3.76965 64.0991 3.76965H60.623V19.6656H56.7174V0.710221H64.0991C65.5832 0.710221 66.8547 0.979277 67.9136 1.51739C68.9811 2.04682 69.797 2.78022 70.3611 3.71757C70.9253 4.65493 71.2074 5.72681 71.2074 6.93323C71.2074 8.157 70.9253 9.21586 70.3611 10.1098C69.797 11.0038 68.9811 11.6938 67.9136 12.1798C66.8547 12.6659 65.5832 12.9089 64.0991 12.9089ZM73.9022 0.710221H80.9715C82.4209 0.710221 83.6664 0.927202 84.7079 1.36116C85.7581 1.79512 86.5652 2.43739 87.1294 3.28795C87.6935 4.13852 87.9756 5.18436 87.9756 6.42549C87.9756 7.44096 87.802 8.31322 87.4549 9.04228C87.1164 9.76265 86.6347 10.3659 86.0098 10.8519C85.3935 11.3293 84.6688 11.7111 83.8356 11.9976L82.5988 12.6485H76.4539L76.4279 9.60209H80.9975C81.6832 9.60209 82.2517 9.48058 82.703 9.23756C83.1543 8.99454 83.4928 8.65605 83.7185 8.22209C83.9528 7.78813 84.07 7.28473 84.07 6.71191C84.07 6.10436 83.9571 5.57927 83.7315 5.13663C83.5058 4.69399 83.163 4.3555 82.703 4.12116C82.243 3.88682 81.6658 3.76965 80.9715 3.76965H77.8079V19.6656H73.9022V0.710221ZM84.4996 19.6656L80.1773 11.2164L84.3043 11.1904L88.6786 19.4834V19.6656H84.4996ZM106.553 9.74529V10.6436C106.553 12.0843 106.358 13.3776 105.968 14.5232C105.577 15.6689 105.026 16.6453 104.314 17.4524C103.603 18.2509 102.752 18.8628 101.763 19.2881C100.782 19.7134 99.6926 19.926 98.4948 19.926C97.3058 19.926 96.2165 19.7134 95.2271 19.2881C94.2464 18.8628 93.3958 18.2509 92.6754 17.4524C91.955 16.6453 91.3952 15.6689 90.996 14.5232C90.6054 13.3776 90.4101 12.0843 90.4101 10.6436V9.74529C90.4101 8.29586 90.6054 7.00266 90.996 5.86568C91.3866 4.72002 91.9377 3.74361 92.6494 2.93644C93.3698 2.12927 94.2203 1.51305 95.2011 1.08777C96.1905 0.662485 97.2797 0.449844 98.4688 0.449844C99.6665 0.449844 100.756 0.662485 101.737 1.08777C102.726 1.51305 103.577 2.12927 104.288 2.93644C105.009 3.74361 105.564 4.72002 105.955 5.86568C106.354 7.00266 106.553 8.29586 106.553 9.74529ZM102.609 10.6436V9.71926C102.609 8.71247 102.518 7.82719 102.335 7.06341C102.153 6.29964 101.884 5.65738 101.528 5.13663C101.172 4.61587 100.738 4.22531 100.226 3.96493C99.7143 3.69587 99.1284 3.56135 98.4688 3.56135C97.8092 3.56135 97.2233 3.69587 96.7113 3.96493C96.2079 4.22531 95.7782 4.61587 95.4224 5.13663C95.0752 5.65738 94.8105 6.29964 94.6282 7.06341C94.446 7.82719 94.3548 8.71247 94.3548 9.71926V10.6436C94.3548 11.6417 94.446 12.527 94.6282 13.2994C94.8105 14.0632 95.0796 14.7098 95.4354 15.2392C95.7913 15.76 96.2252 16.1549 96.7373 16.424C97.2494 16.693 97.8352 16.8275 98.4948 16.8275C99.1545 16.8275 99.7403 16.693 100.252 16.424C100.764 16.1549 101.194 15.76 101.541 15.2392C101.888 14.7098 102.153 14.0632 102.335 13.2994C102.518 12.527 102.609 11.6417 102.609 10.6436ZM115.185 19.6656H111.058L111.084 16.6192H115.185C116.209 16.6192 117.073 16.3892 117.776 15.9292C118.479 15.4606 119.008 14.7792 119.364 13.8853C119.729 12.9913 119.911 11.9108 119.911 10.6436V9.71926C119.911 8.74718 119.807 7.89228 119.598 7.15455C119.399 6.41681 119.099 5.79625 118.7 5.29285C118.301 4.78946 117.81 4.41191 117.229 4.16021C116.647 3.89984 115.979 3.76965 115.224 3.76965H110.98V0.710221H115.224C116.491 0.710221 117.65 0.927202 118.7 1.36116C119.759 1.78645 120.675 2.39833 121.447 3.19682C122.22 3.99531 122.814 4.95002 123.231 6.06096C123.656 7.16323 123.869 8.39134 123.869 9.74529V10.6436C123.869 11.9889 123.656 13.217 123.231 14.3279C122.814 15.4389 122.22 16.3936 121.447 17.1921C120.683 17.9819 119.768 18.5938 118.7 19.0277C117.641 19.453 116.47 19.6656 115.185 19.6656ZM113.271 0.710221V19.6656H109.366V0.710221H113.271ZM137.174 0.710221H141.066V13.2343C141.066 14.6925 140.754 15.9206 140.129 16.9187C139.513 17.9168 138.658 18.6675 137.564 19.1709C136.479 19.6743 135.23 19.926 133.815 19.926C132.4 19.926 131.142 19.6743 130.039 19.1709C128.946 18.6675 128.087 17.9168 127.462 16.9187C126.846 15.9206 126.537 14.6925 126.537 13.2343V0.710221H130.443V13.2343C130.443 14.0849 130.578 14.7792 130.847 15.3174C131.116 15.8555 131.502 16.2504 132.005 16.5021C132.517 16.7538 133.121 16.8796 133.815 16.8796C134.527 16.8796 135.13 16.7538 135.625 16.5021C136.128 16.2504 136.51 15.8555 136.77 15.3174C137.039 14.7792 137.174 14.0849 137.174 13.2343V0.710221ZM155.27 13.3776H159.163C159.085 14.6534 158.733 15.786 158.108 16.7755C157.492 17.7649 156.628 18.5374 155.517 19.0928C154.415 19.6483 153.087 19.926 151.534 19.926C150.318 19.926 149.229 19.7177 148.266 19.3011C147.302 18.8758 146.478 18.2683 145.792 17.4785C145.115 16.6887 144.599 15.734 144.243 14.6143C143.887 13.4947 143.709 12.2406 143.709 10.8519V9.53699C143.709 8.14832 143.892 6.89417 144.256 5.77455C144.629 4.64625 145.159 3.6872 145.844 2.89739C146.539 2.10758 147.368 1.50003 148.331 1.07475C149.294 0.649467 150.371 0.436825 151.56 0.436825C153.139 0.436825 154.472 0.72324 155.556 1.29607C156.65 1.8689 157.496 2.65871 158.095 3.6655C158.703 4.67229 159.067 5.81795 159.189 7.10247H155.283C155.24 6.3387 155.088 5.6921 154.827 5.16266C154.567 4.62455 154.172 4.22097 153.643 3.95191C153.122 3.67418 152.428 3.53531 151.56 3.53531C150.909 3.53531 150.34 3.65682 149.854 3.89984C149.368 4.14285 148.96 4.51172 148.63 5.00644C148.301 5.50115 148.053 6.12606 147.888 6.88115C147.732 7.62756 147.654 8.50417 147.654 9.51096V10.8519C147.654 11.8326 147.728 12.6962 147.875 13.4426C148.023 14.1804 148.249 14.8053 148.552 15.3174C148.865 15.8208 149.264 16.2026 149.75 16.463C150.245 16.7147 150.839 16.8406 151.534 16.8406C152.349 16.8406 153.022 16.7104 153.552 16.45C154.081 16.1896 154.485 15.8034 154.762 15.2913C155.049 14.7792 155.218 14.1413 155.27 13.3776ZM169.812 0.710221V19.6656H165.919V0.710221H169.812ZM175.644 0.710221V3.76965H160.178V0.710221H175.644Z" fill="white" fill-opacity="0.87"/>
</svg>
